<mxfile host="65bd71144e">
    <diagram id="cGS0EPbKS3uMlSCxh6rf" name="Home">
        <mxGraphModel dx="632" dy="478" grid="1" gridSize="10" guides="1" tooltips="1" connect="1" arrows="1" fold="1" page="1" pageScale="1" pageWidth="850" pageHeight="1100" math="0" shadow="0">
            <root>
                <mxCell id="0"/>
                <mxCell id="1" parent="0"/>
                <mxCell id="2" value="" style="rounded=0;whiteSpace=wrap;html=1;" parent="1" vertex="1">
                    <mxGeometry x="40" y="20" width="560" height="60" as="geometry"/>
                </mxCell>
                <mxCell id="6" value="Tìm kiếm" style="strokeWidth=1;shadow=0;dashed=0;align=center;html=1;shape=mxgraph.mockup.buttons.button;strokeColor=#666666;fontColor=#ffffff;mainText=;buttonStyle=round;fontSize=17;fontStyle=1;fillColor=#008cff;whiteSpace=wrap;" parent="1" vertex="1">
                    <mxGeometry x="220" y="110" width="105" height="30" as="geometry"/>
                </mxCell>
                <mxCell id="8" value="Search" style="strokeWidth=1;shadow=0;dashed=0;align=center;html=1;shape=mxgraph.mockup.forms.searchBox;strokeColor=#999999;mainText=;strokeColor2=#008cff;fontColor=#666666;fontSize=17;align=left;spacingLeft=3;" parent="1" vertex="1">
                    <mxGeometry x="40" y="110" width="150" height="30" as="geometry"/>
                </mxCell>
                <mxCell id="9" value="" style="rounded=0;whiteSpace=wrap;html=1;" parent="1" vertex="1">
                    <mxGeometry x="40" y="160" width="560" height="330" as="geometry"/>
                </mxCell>
                <mxCell id="10" value="Nhân viên A" style="rounded=1;whiteSpace=wrap;html=1;" parent="1" vertex="1">
                    <mxGeometry x="60" y="200" width="70" height="60" as="geometry"/>
                </mxCell>
                <mxCell id="11" value="&lt;span&gt;Nhân viên B&lt;/span&gt;" style="rounded=1;whiteSpace=wrap;html=1;" parent="1" vertex="1">
                    <mxGeometry x="150" y="200" width="70" height="60" as="geometry"/>
                </mxCell>
                <mxCell id="12" value="&lt;span&gt;Nhân viên C&lt;/span&gt;" style="rounded=1;whiteSpace=wrap;html=1;" parent="1" vertex="1">
                    <mxGeometry x="237.5" y="200" width="70" height="60" as="geometry"/>
                </mxCell>
                <mxCell id="13" value="&lt;span&gt;Nhân viên D&lt;/span&gt;" style="rounded=1;whiteSpace=wrap;html=1;" parent="1" vertex="1">
                    <mxGeometry x="330" y="200" width="70" height="60" as="geometry"/>
                </mxCell>
                <mxCell id="14" value="&lt;span&gt;Nhân viên E&lt;/span&gt;" style="rounded=1;whiteSpace=wrap;html=1;" parent="1" vertex="1">
                    <mxGeometry x="420" y="200" width="70" height="60" as="geometry"/>
                </mxCell>
                <mxCell id="17" value="Nhân viên F" style="rounded=1;whiteSpace=wrap;html=1;" parent="1" vertex="1">
                    <mxGeometry x="60" y="280" width="70" height="60" as="geometry"/>
                </mxCell>
                <mxCell id="18" value="Nhân viên F" style="rounded=1;whiteSpace=wrap;html=1;" parent="1" vertex="1">
                    <mxGeometry x="150" y="280" width="70" height="60" as="geometry"/>
                </mxCell>
                <mxCell id="19" value="Nhân viên F" style="rounded=1;whiteSpace=wrap;html=1;" parent="1" vertex="1">
                    <mxGeometry x="237.5" y="280" width="70" height="60" as="geometry"/>
                </mxCell>
                <mxCell id="20" value="Nhân viên F" style="rounded=1;whiteSpace=wrap;html=1;" parent="1" vertex="1">
                    <mxGeometry x="330" y="280" width="70" height="60" as="geometry"/>
                </mxCell>
                <mxCell id="21" value="Nhân viên F" style="rounded=1;whiteSpace=wrap;html=1;" parent="1" vertex="1">
                    <mxGeometry x="420" y="280" width="70" height="60" as="geometry"/>
                </mxCell>
                <mxCell id="22" value="Nhân viên F" style="rounded=1;whiteSpace=wrap;html=1;" parent="1" vertex="1">
                    <mxGeometry x="60" y="360" width="70" height="60" as="geometry"/>
                </mxCell>
                <mxCell id="23" value="Nhân viên F" style="rounded=1;whiteSpace=wrap;html=1;" parent="1" vertex="1">
                    <mxGeometry x="150" y="360" width="70" height="60" as="geometry"/>
                </mxCell>
                <mxCell id="24" value="Nhân viên F" style="rounded=1;whiteSpace=wrap;html=1;" parent="1" vertex="1">
                    <mxGeometry x="237.5" y="360" width="70" height="60" as="geometry"/>
                </mxCell>
                <mxCell id="25" value="Nhân viên F" style="rounded=1;whiteSpace=wrap;html=1;" parent="1" vertex="1">
                    <mxGeometry x="330" y="360" width="70" height="60" as="geometry"/>
                </mxCell>
                <mxCell id="28" value="Nhân viên F" style="rounded=1;whiteSpace=wrap;html=1;" parent="1" vertex="1">
                    <mxGeometry x="510" y="200" width="70" height="60" as="geometry"/>
                </mxCell>
                <mxCell id="29" value="&#10;&#10;&lt;span style=&quot;color: rgb(240, 240, 240); font-family: helvetica; font-size: 12px; font-style: normal; font-weight: 400; letter-spacing: normal; text-align: center; text-indent: 0px; text-transform: none; word-spacing: 0px; background-color: rgb(42, 42, 42); display: inline; float: none;&quot;&gt;Nhân viên F&lt;/span&gt;&#10;&#10;" style="rounded=1;whiteSpace=wrap;html=1;" parent="1" vertex="1">
                    <mxGeometry x="510" y="280" width="70" height="60" as="geometry"/>
                </mxCell>
                <mxCell id="30" value="" style="rounded=0;whiteSpace=wrap;html=1;" parent="1" vertex="1">
                    <mxGeometry x="40" y="520" width="560" height="160" as="geometry"/>
                </mxCell>
                <mxCell id="31" value="ABOUT US&lt;br&gt;&lt;br&gt;Address:&amp;nbsp;&lt;br&gt;Phone:&lt;br&gt;Fax:&lt;br&gt;Email:" style="rounded=0;whiteSpace=wrap;html=1;" parent="1" vertex="1">
                    <mxGeometry x="40" y="520" width="240" height="110" as="geometry"/>
                </mxCell>
                <mxCell id="u7prnE6FYiWRz8_pZ4_5-31" value="&lt;table border=&quot;0&quot; cellpadding=&quot;0&quot; cellspacing=&quot;0&quot; width=&quot;100%&quot; style=&quot;font-size: 1em&quot;&gt;&lt;tbody&gt;&lt;tr&gt;&lt;td width=&quot;25%&quot;&gt;&lt;font color=&quot;#007fff&quot;&gt;Home&lt;/font&gt;&lt;/td&gt;&lt;td width=&quot;25%&quot;&gt;Chi tiết nhân viên&lt;/td&gt;&lt;td width=&quot;25%&quot;&gt;Phòng ban&lt;/td&gt;&lt;td width=&quot;25%&quot;&gt;Bảng Lương&lt;/td&gt;&lt;/tr&gt;&lt;/tbody&gt;&lt;/table&gt;" style="strokeWidth=1;shadow=0;dashed=0;align=center;html=1;shape=mxgraph.mockup.navigation.stepBar;strokeColor=#c4c4c4;textColor=#666666;textColor2=#008cff;mainText=,,+,;textSize=17;fillColor=#666666;overflow=fill;fontSize=17;fontColor=#666666;" vertex="1" parent="1">
                    <mxGeometry x="20" y="30" width="580" height="40" as="geometry"/>
                </mxCell>
            </root>
        </mxGraphModel>
    </diagram>
    <diagram id="W0irjHH5zuDXJD7U5wA8" name="StaffInformation">
        <mxGraphModel dx="632" dy="478" grid="1" gridSize="10" guides="1" tooltips="1" connect="1" arrows="1" fold="1" page="1" pageScale="1" pageWidth="850" pageHeight="1100" math="0" shadow="0">
            <root>
                <mxCell id="E-a6I41GKHTbe06I-YKI-0"/>
                <mxCell id="E-a6I41GKHTbe06I-YKI-1" parent="E-a6I41GKHTbe06I-YKI-0"/>
                <mxCell id="enYROwSR7WiXbR0r3cyE-0" value="" style="rounded=0;whiteSpace=wrap;html=1;" parent="E-a6I41GKHTbe06I-YKI-1" vertex="1">
                    <mxGeometry x="40" y="20" width="560" height="60" as="geometry"/>
                </mxCell>
                <mxCell id="iwsOlSgwyXzL2Mg8o_y7-0" value="" style="rounded=0;whiteSpace=wrap;html=1;" parent="E-a6I41GKHTbe06I-YKI-1" vertex="1">
                    <mxGeometry x="40" y="180" width="560" height="270" as="geometry"/>
                </mxCell>
                <mxCell id="iwsOlSgwyXzL2Mg8o_y7-1" value="ẢNh nhân viên" style="whiteSpace=wrap;html=1;aspect=fixed;" parent="E-a6I41GKHTbe06I-YKI-1" vertex="1">
                    <mxGeometry x="40" y="180" width="180" height="180" as="geometry"/>
                </mxCell>
                <mxCell id="iwsOlSgwyXzL2Mg8o_y7-2" value="Thông tin chi tiết" style="rounded=0;whiteSpace=wrap;html=1;" parent="E-a6I41GKHTbe06I-YKI-1" vertex="1">
                    <mxGeometry x="250" y="180" width="120" height="180" as="geometry"/>
                </mxCell>
                <mxCell id="iwsOlSgwyXzL2Mg8o_y7-3" value="" style="rounded=0;whiteSpace=wrap;html=1;" parent="E-a6I41GKHTbe06I-YKI-1" vertex="1">
                    <mxGeometry x="40" y="480" width="560" height="150" as="geometry"/>
                </mxCell>
                <mxCell id="MCdp8VoIi3KKgHeuaPmu-0" value="ABOUT US&lt;br&gt;&lt;br&gt;Address:&amp;nbsp;&lt;br&gt;Phone:&lt;br&gt;Fax:&lt;br&gt;Email:" style="rounded=0;whiteSpace=wrap;html=1;" parent="E-a6I41GKHTbe06I-YKI-1" vertex="1">
                    <mxGeometry x="40" y="480" width="240" height="110" as="geometry"/>
                </mxCell>
                <mxCell id="WFmZV1tw-VnMtCQ5idn--0" value="Search" style="strokeWidth=1;shadow=0;dashed=0;align=center;html=1;shape=mxgraph.mockup.forms.searchBox;strokeColor=#999999;mainText=;strokeColor2=#008cff;fontColor=#666666;fontSize=17;align=left;spacingLeft=3;" parent="E-a6I41GKHTbe06I-YKI-1" vertex="1">
                    <mxGeometry x="40" y="110" width="150" height="30" as="geometry"/>
                </mxCell>
                <mxCell id="NYCIomZ4BRHVWiFNaW1Z-0" value="Tìm kiếm" style="strokeWidth=1;shadow=0;dashed=0;align=center;html=1;shape=mxgraph.mockup.buttons.button;strokeColor=#666666;fontColor=#ffffff;mainText=;buttonStyle=round;fontSize=17;fontStyle=1;fillColor=#008cff;whiteSpace=wrap;" parent="E-a6I41GKHTbe06I-YKI-1" vertex="1">
                    <mxGeometry x="220" y="110" width="105" height="30" as="geometry"/>
                </mxCell>
                <mxCell id="7rBcMOtCXwVEY-_b6edd-1" value="&lt;table border=&quot;0&quot; cellpadding=&quot;0&quot; cellspacing=&quot;0&quot; width=&quot;100%&quot; style=&quot;font-size: 1em&quot;&gt;&lt;tbody&gt;&lt;tr&gt;&lt;td width=&quot;25%&quot;&gt;Home&lt;/td&gt;&lt;td width=&quot;25%&quot;&gt;&lt;font color=&quot;#007fff&quot;&gt;Chi tiết nhân viên&lt;/font&gt;&lt;/td&gt;&lt;td width=&quot;25%&quot;&gt;Phòng ban&lt;/td&gt;&lt;td width=&quot;25%&quot;&gt;Bảng Lương&lt;/td&gt;&lt;/tr&gt;&lt;/tbody&gt;&lt;/table&gt;" style="strokeWidth=1;shadow=0;dashed=0;align=center;html=1;shape=mxgraph.mockup.navigation.stepBar;strokeColor=#c4c4c4;textColor=#666666;textColor2=#008cff;mainText=,,+,;textSize=17;fillColor=#666666;overflow=fill;fontSize=17;fontColor=#666666;" vertex="1" parent="E-a6I41GKHTbe06I-YKI-1">
                    <mxGeometry x="20" y="30" width="580" height="40" as="geometry"/>
                </mxCell>
            </root>
        </mxGraphModel>
    </diagram>
    <diagram id="19_o4jFuo1TiFjpCLtwM" name="Department">
        <mxGraphModel dx="632" dy="478" grid="1" gridSize="10" guides="1" tooltips="1" connect="1" arrows="1" fold="1" page="1" pageScale="1" pageWidth="850" pageHeight="1100" math="0" shadow="0">
            <root>
                <mxCell id="HX7K-nIKbaRK3BG4szig-0"/>
                <mxCell id="HX7K-nIKbaRK3BG4szig-1" parent="HX7K-nIKbaRK3BG4szig-0"/>
                <mxCell id="HX7K-nIKbaRK3BG4szig-2" value="" style="rounded=0;whiteSpace=wrap;html=1;" parent="HX7K-nIKbaRK3BG4szig-1" vertex="1">
                    <mxGeometry x="40" y="110" width="560" height="60" as="geometry"/>
                </mxCell>
                <mxCell id="ZDCczGdu3-ry9YnFjk_b-0" value="Search" style="strokeWidth=1;shadow=0;dashed=0;align=center;html=1;shape=mxgraph.mockup.forms.searchBox;strokeColor=#999999;mainText=;strokeColor2=#008cff;fontColor=#666666;fontSize=17;align=left;spacingLeft=3;" parent="HX7K-nIKbaRK3BG4szig-1" vertex="1">
                    <mxGeometry x="40" y="200" width="150" height="30" as="geometry"/>
                </mxCell>
                <mxCell id="_hV8r8Tk1Pl0yS7zSuIQ-0" value="Tìm kiếm" style="strokeWidth=1;shadow=0;dashed=0;align=center;html=1;shape=mxgraph.mockup.buttons.button;strokeColor=#666666;fontColor=#ffffff;mainText=;buttonStyle=round;fontSize=17;fontStyle=1;fillColor=#008cff;whiteSpace=wrap;" parent="HX7K-nIKbaRK3BG4szig-1" vertex="1">
                    <mxGeometry x="220" y="200" width="105" height="30" as="geometry"/>
                </mxCell>
                <mxCell id="_hV8r8Tk1Pl0yS7zSuIQ-1" value="Phòng ban 1" style="rounded=1;whiteSpace=wrap;html=1;" parent="HX7K-nIKbaRK3BG4szig-1" vertex="1">
                    <mxGeometry x="40" y="310" width="120" height="60" as="geometry"/>
                </mxCell>
                <mxCell id="_hV8r8Tk1Pl0yS7zSuIQ-2" value="&lt;span&gt;Phòng ban 5&lt;/span&gt;" style="rounded=1;whiteSpace=wrap;html=1;" parent="HX7K-nIKbaRK3BG4szig-1" vertex="1">
                    <mxGeometry x="200" y="420" width="120" height="60" as="geometry"/>
                </mxCell>
                <mxCell id="_hV8r8Tk1Pl0yS7zSuIQ-3" value="Phòng ban 2" style="rounded=1;whiteSpace=wrap;html=1;" parent="HX7K-nIKbaRK3BG4szig-1" vertex="1">
                    <mxGeometry x="200" y="310" width="120" height="60" as="geometry"/>
                </mxCell>
                <mxCell id="_hV8r8Tk1Pl0yS7zSuIQ-4" value="&lt;span&gt;Phòng ban 4&lt;/span&gt;" style="rounded=1;whiteSpace=wrap;html=1;" parent="HX7K-nIKbaRK3BG4szig-1" vertex="1">
                    <mxGeometry x="40" y="420" width="120" height="60" as="geometry"/>
                </mxCell>
                <mxCell id="_hV8r8Tk1Pl0yS7zSuIQ-5" value="&lt;span&gt;Phòng ban 3&lt;/span&gt;" style="rounded=1;whiteSpace=wrap;html=1;" parent="HX7K-nIKbaRK3BG4szig-1" vertex="1">
                    <mxGeometry x="380" y="310" width="120" height="60" as="geometry"/>
                </mxCell>
                <mxCell id="zcrVXLfozyQDE32FHhUi-0" value="" style="rounded=0;whiteSpace=wrap;html=1;" parent="HX7K-nIKbaRK3BG4szig-1" vertex="1">
                    <mxGeometry x="40" y="520" width="560" height="150" as="geometry"/>
                </mxCell>
                <mxCell id="qHvGcokubabUc-6X20Jg-0" value="ABOUT US&lt;br&gt;&lt;br&gt;Address:&amp;nbsp;&lt;br&gt;Phone:&lt;br&gt;Fax:&lt;br&gt;Email:" style="rounded=0;whiteSpace=wrap;html=1;" parent="HX7K-nIKbaRK3BG4szig-1" vertex="1">
                    <mxGeometry x="40" y="520" width="240" height="110" as="geometry"/>
                </mxCell>
                <mxCell id="EEUN2L-7pXsW2ydcL3Jk-0" value="&lt;table border=&quot;0&quot; cellpadding=&quot;0&quot; cellspacing=&quot;0&quot; width=&quot;100%&quot; style=&quot;font-size: 1em&quot;&gt;&lt;tbody&gt;&lt;tr&gt;&lt;td width=&quot;25%&quot;&gt;Home&lt;/td&gt;&lt;td width=&quot;25%&quot;&gt;Nhân viên&lt;/td&gt;&lt;td width=&quot;25%&quot;&gt;&lt;font color=&quot;#007fff&quot;&gt;Phòng ban&lt;/font&gt;&lt;/td&gt;&lt;td width=&quot;25%&quot;&gt;Bảng Lương&lt;/td&gt;&lt;/tr&gt;&lt;/tbody&gt;&lt;/table&gt;" style="strokeWidth=1;shadow=0;dashed=0;align=center;html=1;shape=mxgraph.mockup.navigation.stepBar;strokeColor=#c4c4c4;textColor=#666666;textColor2=#008cff;mainText=,,+,;textSize=17;fillColor=#666666;overflow=fill;fontSize=17;fontColor=#666666;" vertex="1" parent="HX7K-nIKbaRK3BG4szig-1">
                    <mxGeometry x="20" y="120" width="580" height="40" as="geometry"/>
                </mxCell>
            </root>
        </mxGraphModel>
    </diagram>
    <diagram id="U_SsbfZPwT6O54dHLsXn" name="Salary">
        <mxGraphModel dx="632" dy="478" grid="1" gridSize="10" guides="1" tooltips="1" connect="1" arrows="1" fold="1" page="1" pageScale="1" pageWidth="850" pageHeight="1100" math="0" shadow="0">
            <root>
                <mxCell id="Duf33ewjCeDNrfE95Tnt-0"/>
                <mxCell id="Duf33ewjCeDNrfE95Tnt-1" parent="Duf33ewjCeDNrfE95Tnt-0"/>
                <mxCell id="a0gdoTFxWyy5SjCGm5nJ-0" value="" style="rounded=0;whiteSpace=wrap;html=1;" parent="Duf33ewjCeDNrfE95Tnt-1" vertex="1">
                    <mxGeometry x="40" y="20" width="560" height="60" as="geometry"/>
                </mxCell>
                <mxCell id="heJOXcPUqF0UaCSLdrDi-0" value="Search" style="strokeWidth=1;shadow=0;dashed=0;align=center;html=1;shape=mxgraph.mockup.forms.searchBox;strokeColor=#999999;mainText=;strokeColor2=#008cff;fontColor=#666666;fontSize=17;align=left;spacingLeft=3;" parent="Duf33ewjCeDNrfE95Tnt-1" vertex="1">
                    <mxGeometry x="40" y="110" width="150" height="30" as="geometry"/>
                </mxCell>
                <mxCell id="wiSkyL9UMPxmj4ve1wWO-0" value="Tìm kiếm" style="strokeWidth=1;shadow=0;dashed=0;align=center;html=1;shape=mxgraph.mockup.buttons.button;strokeColor=#666666;fontColor=#ffffff;mainText=;buttonStyle=round;fontSize=17;fontStyle=1;fillColor=#008cff;whiteSpace=wrap;" parent="Duf33ewjCeDNrfE95Tnt-1" vertex="1">
                    <mxGeometry x="220" y="110" width="105" height="30" as="geometry"/>
                </mxCell>
                <mxCell id="dk1fMQws9jgM_9y4f6Dk-0" value="" style="rounded=0;whiteSpace=wrap;html=1;" parent="Duf33ewjCeDNrfE95Tnt-1" vertex="1">
                    <mxGeometry x="40" y="180" width="560" height="270" as="geometry"/>
                </mxCell>
                <mxCell id="dk1fMQws9jgM_9y4f6Dk-1" value="Lương nhân viên 1" style="rounded=0;whiteSpace=wrap;html=1;" parent="Duf33ewjCeDNrfE95Tnt-1" vertex="1">
                    <mxGeometry x="90" y="210" width="70" height="60" as="geometry"/>
                </mxCell>
                <mxCell id="dk1fMQws9jgM_9y4f6Dk-2" value="&lt;span&gt;Lương nhân viên 6&lt;/span&gt;" style="rounded=0;whiteSpace=wrap;html=1;" parent="Duf33ewjCeDNrfE95Tnt-1" vertex="1">
                    <mxGeometry x="200" y="340" width="70" height="60" as="geometry"/>
                </mxCell>
                <mxCell id="dk1fMQws9jgM_9y4f6Dk-3" value="&lt;span&gt;Lương nhân viên 2&lt;/span&gt;" style="rounded=0;whiteSpace=wrap;html=1;" parent="Duf33ewjCeDNrfE95Tnt-1" vertex="1">
                    <mxGeometry x="200" y="210" width="70" height="60" as="geometry"/>
                </mxCell>
                <mxCell id="dk1fMQws9jgM_9y4f6Dk-4" value="&lt;span&gt;Lương nhân viên 3&lt;/span&gt;" style="rounded=0;whiteSpace=wrap;html=1;" parent="Duf33ewjCeDNrfE95Tnt-1" vertex="1">
                    <mxGeometry x="310" y="210" width="70" height="60" as="geometry"/>
                </mxCell>
                <mxCell id="dk1fMQws9jgM_9y4f6Dk-5" value="&lt;span&gt;Lương nhân viên 7&lt;/span&gt;" style="rounded=0;whiteSpace=wrap;html=1;" parent="Duf33ewjCeDNrfE95Tnt-1" vertex="1">
                    <mxGeometry x="310" y="340" width="70" height="60" as="geometry"/>
                </mxCell>
                <mxCell id="dk1fMQws9jgM_9y4f6Dk-6" value="&lt;span&gt;Lương nhân viên 4&lt;/span&gt;" style="rounded=0;whiteSpace=wrap;html=1;" parent="Duf33ewjCeDNrfE95Tnt-1" vertex="1">
                    <mxGeometry x="420" y="210" width="70" height="60" as="geometry"/>
                </mxCell>
                <mxCell id="dk1fMQws9jgM_9y4f6Dk-7" value="&lt;span&gt;Lương nhân viên 5&lt;/span&gt;" style="rounded=0;whiteSpace=wrap;html=1;" parent="Duf33ewjCeDNrfE95Tnt-1" vertex="1">
                    <mxGeometry x="90" y="340" width="70" height="60" as="geometry"/>
                </mxCell>
                <mxCell id="dk1fMQws9jgM_9y4f6Dk-9" value="&lt;span&gt;Lương nhân viên 8&lt;/span&gt;" style="rounded=0;whiteSpace=wrap;html=1;" parent="Duf33ewjCeDNrfE95Tnt-1" vertex="1">
                    <mxGeometry x="420" y="340" width="70" height="60" as="geometry"/>
                </mxCell>
                <mxCell id="6D8_5YgnEgCu79h42NVZ-0" value="" style="rounded=0;whiteSpace=wrap;html=1;" parent="Duf33ewjCeDNrfE95Tnt-1" vertex="1">
                    <mxGeometry x="40" y="480" width="560" height="150" as="geometry"/>
                </mxCell>
                <mxCell id="f_Nhnytdst2brPgyahOi-0" value="ABOUT US&lt;br&gt;&lt;br&gt;Address:&amp;nbsp;&lt;br&gt;Phone:&lt;br&gt;Fax:&lt;br&gt;Email:" style="rounded=0;whiteSpace=wrap;html=1;" parent="Duf33ewjCeDNrfE95Tnt-1" vertex="1">
                    <mxGeometry x="40" y="480" width="240" height="110" as="geometry"/>
                </mxCell>
                <mxCell id="h3kmHX2m-ZmdWm5_5xPu-0" value="&lt;table border=&quot;0&quot; cellpadding=&quot;0&quot; cellspacing=&quot;0&quot; width=&quot;100%&quot; style=&quot;font-size: 1em&quot;&gt;&lt;tbody&gt;&lt;tr&gt;&lt;td width=&quot;25%&quot;&gt;Home&lt;/td&gt;&lt;td width=&quot;25%&quot;&gt;Nhân viên&lt;/td&gt;&lt;td width=&quot;25%&quot;&gt;Phòng ban&lt;/td&gt;&lt;td width=&quot;25%&quot;&gt;&lt;font color=&quot;#007fff&quot;&gt;Bảng Lương&lt;/font&gt;&lt;/td&gt;&lt;/tr&gt;&lt;/tbody&gt;&lt;/table&gt;" style="strokeWidth=1;shadow=0;dashed=0;align=center;html=1;shape=mxgraph.mockup.navigation.stepBar;strokeColor=#c4c4c4;textColor=#666666;textColor2=#008cff;mainText=,,+,;textSize=17;fillColor=#666666;overflow=fill;fontSize=17;fontColor=#666666;" vertex="1" parent="Duf33ewjCeDNrfE95Tnt-1">
                    <mxGeometry x="20" y="30" width="580" height="40" as="geometry"/>
                </mxCell>
            </root>
        </mxGraphModel>
    </diagram>
</mxfile>